<?xml version="1.0" encoding="utf-8"?>
<!-- Generator: Adobe Illustrator 24.0.1, SVG Export Plug-In . SVG Version: 6.00 Build 0)  -->
<svg version="1.1" id="Camada_2" xmlns="http://www.w3.org/2000/svg" xmlns:xlink="http://www.w3.org/1999/xlink" x="0px" y="0px"
	 viewBox="0 0 129.3 161.5" style="enable-background:new 0 0 129.3 161.5;" xml:space="preserve">
<style type="text/css">
	.st0{fill:#333333;}
	.st1{opacity:0.15;}
	.st2{fill:#444444;}
</style>
<rect x="-0.6" y="0.1" class="st0" width="130.4" height="161.3"/>
<g class="st1">
	<path class="st2" d="M82.6,80.7c1.3-10.6,5-20.1,13.1-27.5c2.6-2.4,5.7-4.2,9-5.4c1.8-0.6,2-1.5,1.9-3.1
		c-0.2-11.6-7.2-21.1-19.1-25.8c-3-1.1-6-1.9-9.2-2.3c-2.1,0-3.8-1.7-3.8-3.8c0-0.2,0-0.4,0-0.5C75,10.1,76.9,8.7,79,9
		c0.1,0,0.2,0,0.2,0c13.8,1.6,30.6,10.2,34.3,28.9c0.4,1.6,0.6,3.2,0.7,4.8c0,2.2,0.6,3.1,2.9,2.6c0.9-0.1,1.8-0.1,2.7,0
		c2-0.1,3.7,1.3,3.8,3.3c0,0.1,0,0.1,0,0.2c0.2,2-1.3,3.8-3.2,4c-0.1,0-0.2,0-0.3,0c-2.4,0.2-4.9,0-7.3,0.5
		c-10.9,1.9-17.2,9-20.6,19.1c-1,3-1.7,6.1-2,9.3c-0.4,3.3-1.9,4.8-4.1,4.6S82.4,84.1,82.6,80.7z"/>
	<path class="st2" d="M41.1,50.5c-8.4-0.6-16.3-4.2-22.2-10.1c-7.3-7-11.2-16.8-10.7-26.9c0.1-3,1.4-4.6,3.8-4.6s3.8,1.7,3.8,4.9
		c-0.2,13.6,7.6,24.6,20.2,28.1c9.3,2.8,19.4,0.4,26.5-6.2c0.7-0.7,1.4-1.4,2.1-2.1c2.1-2.2,4.2-2.5,5.9-1c1.7,1.5,1.7,3.8-0.4,6.2
		c-4,4.7-9.3,8.2-15.2,9.9c-3.3,0.7-6.1,3.1-7.4,6.2c-5,10.4-13.2,16.8-25.2,17.5c-2.7,0.2-4.5-1.2-4.7-3.4s1.4-3.8,4.1-4l2.4-0.3
		C32,63.3,38.5,57.9,41.1,50.5z"/>
	<path class="st2" d="M82.9,126.2c4.1,8,9.7,13.6,19.1,14.2c3,0.2,4.6,1.7,4.6,4c-0.1,2.2-1.9,3.8-5.1,3.5
		c-11.9-0.8-19.8-7.5-24.9-17.8c-1.1-2.9-3.7-5.1-6.8-5.7c-6-1.7-11.3-5-15.4-9.7c-2.4-2.7-2.7-4.9-0.7-6.6c1.9-1.7,3.8-1.2,6.3,1.4
		c7.6,7.9,16.8,10.9,27.4,8.2c10.6-2.6,17.2-9.5,20.3-19.9c0.7-2.8,1-5.7,0.9-8.6c0-2.9,1.3-4.7,3.6-4.8s3.8,1.7,4,4.8
		c0.8,18.2-12.3,34-30.3,36.6C84.8,125.8,83.9,125.9,82.9,126.2z"/>
	<path class="st2" d="M15.3,115.8c2.1,0.7,2.8-0.2,3-2.8c1.9-22.3,20.4-31.8,35.3-33.4c2-0.4,3.8,0.9,4.2,2.9c0,0.1,0,0.2,0,0.3
		c0.4,1.9-0.8,3.7-2.7,4.1c-0.2,0-0.4,0.1-0.6,0.1c-8.1,0.8-15.7,4.4-21.5,10c-4.9,5.2-7.6,12.1-7.4,19.2c0,1,0.3,1.4,1.3,1.8
		c15.2,6.3,21.2,18.9,23,34.3c0.3,2.1-1.1,4-3.2,4.4c-0.1,0-0.2,0-0.3,0c-2.2,0.2-3.8-1.2-4-3.8c-0.5-6-2.4-11.9-5.4-17.2
		c-4.9-8.1-12.3-11.9-21.6-12.4c-0.8,0-1.6,0-2.4,0c-2.1,0.2-4-1.3-4.2-3.4c0-0.1,0-0.2,0-0.2c0-2.1,1.7-3.8,3.8-3.8
		c0.1,0,0.2,0,0.3,0C13.6,115.7,14.2,115.8,15.3,115.8z"/>
</g>
</svg>
