<svg width="125" height="125" xmlns="http://www.w3.org/2000/svg">

 <title>Ativo 208elogios</title>
 <g>
  <title>Layer 1</title>
  <rect id="svg_1" fill="#253150" rx="7.12" height="125" width="125" class="cls-1"/>
  <path id="svg_2" fill="#b3e5ee" d="m107.73,63.4a45.23,45.23 0 1 1 -45.23,-45.23a45.23,45.23 0 0 1 45.23,45.23z" class="cls-2"/>
  <path id="svg_3" fill="#86d7e5" d="m32.36,62.5a45.25,45.25 0 0 1 35,-44.07a46,46 0 0 0 -4.87,-0.26a45.23,45.23 0 1 0 10.23,89.3a45.24,45.24 0 0 1 -40.37,-45l0.01,0.03z" class="cls-3"/>
  <path id="svg_4" fill="#f9f7f7" d="m100.32,63.21a37.82,37.82 0 1 1 -37.82,-37.82a37.83,37.83 0 0 1 37.82,37.82z" class="cls-4"/>
  <path id="svg_5" fill="#f8f3f2" d="m48.05,28.25a37.84,37.84 0 0 0 3.36,71.13a45.23,45.23 0 0 1 -3.36,-71.13z" class="cls-5"/>
  <path id="svg_6" fill="#ffe0d1" d="m69.18,87.9l0,0a4.08,4.08 0 1 1 0,8.15l-1.6,0a4.07,4.07 0 0 1 2.88,7a4,4 0 0 1 -2.88,1.19l-1.58,0a4.08,4.08 0 0 1 0,8.16l-26.56,0a14.63,14.63 0 0 1 -8.65,-2.83l-2.08,-1.57l-13.08,0.26l0,-26.43l14.79,0a4,4 0 0 0 2.44,-0.83l5.67,-4.43a4,4 0 0 0 1.52,-3.12l0,-6.67a5,5 0 0 1 10,0l0,10a2.93,2.93 0 0 0 2.95,2.97l35.56,0a4.08,4.08 0 1 1 0,8.15l-19.38,0z" class="cls-6"/>
  <path id="svg_7" fill="#ffe0d1" d="m59,20.78a4.08,4.08 0 0 1 -4,-4.08a4,4 0 0 1 1.19,-2.88a4.07,4.07 0 0 1 2.81,-1.2l26.56,0a14.63,14.63 0 0 1 8.65,2.83l2.08,1.55l12.71,0l0,26.49l-14.41,-0.32a4,4 0 0 0 -2.44,0.84l-5.67,4.43a4,4 0 0 0 -1.48,3.12l0,6.66a5,5 0 1 1 -10,0l0,-10a2.93,2.93 0 0 0 -3,-2.97l-35.56,0a4.08,4.08 0 1 1 0,-8.15l19.38,0l0,0a4.08,4.08 0 1 1 0,-8.15l1.6,0a4.07,4.07 0 0 1 -2.88,-7a4,4 0 0 1 2.88,-1.19l1.58,0.02z" class="cls-6"/>
  <path id="svg_8" fill="#ffd1c2" d="m80.37,62.6a5.29,5.29 0 0 1 -1.58,-3.78l0,-14a3.16,3.16 0 0 0 -3.17,-3.14l-39.62,0a4.44,4.44 0 0 1 -3.46,-1.64a4,4 0 0 0 -0.15,1.1a4.08,4.08 0 0 0 4.08,4.07l35.53,0a2.93,2.93 0 0 1 3,2.97l0,10a5,5 0 0 0 5,5a4.74,4.74 0 0 0 1,-0.1a4.8,4.8 0 0 1 -0.59,-0.51l-0.04,0.03z" class="cls-7"/>
  <path id="svg_9" fill="#e79098" d="m111.72,45.84l-6.38,0a2.66,2.66 0 0 1 -2.67,-2.67l0,-26.17a2.67,2.67 0 0 1 2.67,-2.67l6.38,0a0.89,0.89 0 0 1 0.88,0.88l0,29.79a0.88,0.88 0 0 1 -0.88,0.87l0,-0.03z" class="cls-8"/>
  <path id="svg_10" fill="#ffd1c2" d="m69.78,106.83a4.08,4.08 0 0 1 -3.07,1.38l-26.53,0a14.72,14.72 0 0 1 -8.66,-2.82l-1.07,-0.78a3.63,3.63 0 0 0 -2.25,-0.71a1.83,1.83 0 0 1 -1.86,-1.83l0,-20.24l-10.71,0l0,22.61l4.78,0l0,3.77l8.3,-0.17l2.08,1.51a14.63,14.63 0 0 0 8.65,2.83l26.44,0a4.08,4.08 0 0 0 3.9,-5.55z" class="cls-7"/>
  <path id="svg_11" fill="#e79098" d="m13.35,110.71l6.31,0a2.67,2.67 0 0 0 2.67,-2.71l0,-26.17a2.66,2.66 0 0 0 -2.67,-2.67l-6.31,0a1,1 0 0 0 -0.95,0.94l0,29.66a1,1 0 0 0 0.95,0.95z" class="cls-8"/>
  <path id="svg_12" fill="#e79098" d="m62.4,70.59a7.89,7.89 0 1 1 7.89,-7.89a7.9,7.9 0 0 1 -7.89,7.89zm0,-12.78a4.89,4.89 0 1 0 4.89,4.89a4.9,4.9 0 0 0 -4.89,-4.89z" class="cls-8"/>
  <path id="svg_13" fill="#e79098" d="m62.4,57.81a1.5,1.5 0 0 1 -1.5,-1.5l0,-2.57a1.5,1.5 0 1 1 3,0l0,2.57a1.5,1.5 0 0 1 -1.5,1.5z" class="cls-8"/>
  <path id="svg_14" fill="#e79098" d="m71.36,64.2l-2.57,0a1.5,1.5 0 0 1 0,-3l2.57,0a1.5,1.5 0 1 1 0,3z" class="cls-8"/>
  <path id="svg_15" fill="#e79098" d="m62.4,73.17a1.51,1.51 0 0 1 -1.5,-1.51l0,-2.57a1.5,1.5 0 0 1 3,0l0,2.57a1.51,1.51 0 0 1 -1.5,1.51z" class="cls-8"/>
  <path id="svg_16" fill="#e79098" d="m56,64.2l-2.56,0a1.5,1.5 0 1 1 0,-3l2.56,0a1.5,1.5 0 1 1 0,3z" class="cls-8"/>
  <path id="svg_17" fill="#e79098" d="m62.4,64.4a1.5,1.5 0 0 1 -1.5,-1.5l0,-0.43a1.5,1.5 0 1 1 3,0l0,0.43a1.5,1.5 0 0 1 -1.5,1.5z" class="cls-8"/>
 </g>
</svg>