<svg width="125" height="125" xmlns="http://www.w3.org/2000/svg">
 <defs>
  <clipPath id="clip-path">
   <rect id="svg_1" fill="none" height="100.19" width="100.19" y="12.4" x="12.4" class="cls-1"/>
  </clipPath>
 </defs>
 <title>Ativo 207elogios</title>
 <g>
  <title>Layer 1</title>
  <rect id="svg_2" fill="#253150" rx="7.12" height="125" width="125" class="cls-2"/>
  <path id="svg_3" fill="#ffe0d1" d="m63.55,74.37l-4,-2.68l-8.91,-3.24l-17.26,13.66l5.53,9.89l0.22,0.13l4.6,2.67l21.88,-15.53l-2.06,-4.9z" class="cls-3"/>
  <g id="svg_4" clip-path="url(#clip-path)" class="cls-4">
   <path id="svg_5" fill="#ffd1c2" d="m43.45,89.13a26.53,26.53 0 0 1 -7.4,-6.35l-0.86,-1.07l-0.81,-0.4l-1,0.8l5.53,9.89l0.22,0.13l4.6,2.67l4.27,-3l-4.55,-2.65l0,-0.02z" class="cls-5"/>
   <path id="svg_6" fill="#ffe0d1" d="m112.33,51.26a0.8,0.8 0 0 0 -1.2,-0.68l-24.93,14.53a2.15,2.15 0 0 1 -1.77,0.17l-3.54,-1.21a20.55,20.55 0 0 0 -13.9,0.26l-0.09,0l-6.87,9l-15.86,14.37l-1.63,1.44a4.06,4.06 0 0 0 -1.08,4.31a3.67,3.67 0 0 0 0.72,1.25a3.94,3.94 0 0 0 4.76,0.92a4,4 0 0 0 -0.94,2.57a3.91,3.91 0 0 0 1.06,2.68a4.14,4.14 0 0 0 5.69,0.11l0,0a4,4 0 0 0 0.09,5.29a4.14,4.14 0 0 0 5.69,0.1l0.17,-0.15a3.94,3.94 0 0 0 0.12,5.24a4.14,4.14 0 0 0 5.69,0.1l1.59,-1.41l10.9,-8a2,2 0 0 1 3.24,-2.39l3,-2.23a2.38,2.38 0 0 1 -0.16,-0.85a2.43,2.43 0 0 1 3.92,-1.92l4.16,-3.08a16.62,16.62 0 0 0 7.01,-5.68l1.07,-1.51l12.85,-6.28a0.78,0.78 0 0 0 0.44,-0.72l-0.2,-26.23z" class="cls-3"/>
   <path id="svg_7" fill="#ffd1c2" d="m112.33,51.26a0.8,0.8 0 0 0 -1.2,-0.68l-24.93,14.53a2.15,2.15 0 0 1 -1.77,0.17l-3.54,-1.21a20.55,20.55 0 0 0 -13.9,0.26l-0.09,0l-6.87,9l-17.49,15.81a4.06,4.06 0 0 0 -1.08,4.31a3.67,3.67 0 0 0 0.72,1.25a3.94,3.94 0 0 0 4.76,0.92a4,4 0 0 0 -0.94,2.57a3.91,3.91 0 0 0 1.06,2.68a4.14,4.14 0 0 0 5.69,0.11l0,0a4,4 0 0 0 0.09,5.29a4.14,4.14 0 0 0 5.69,0.1l0.17,-0.15a3.94,3.94 0 0 0 0.12,5.24a4.14,4.14 0 0 0 5.69,0.1l1.59,-1.41l0.45,-0.33l0,-0.92a4.15,4.15 0 0 1 -4.47,-0.88a4,4 0 0 1 -1,-2.69l0,-0.18a1.1,1.1 0 0 0 -1.27,-1.21a4.11,4.11 0 0 1 -3.65,-1.11a3.93,3.93 0 0 1 -1.06,-2.69a5.46,5.46 0 0 1 0,-0.57a1.28,1.28 0 0 0 -1.43,-1.47c-1.23,0.17 -2.62,0.14 -3.38,-0.61a4,4 0 0 1 -1,-2.69a3.18,3.18 0 0 1 0,-0.62a1.32,1.32 0 0 0 -1.19,-1.53a2.67,2.67 0 0 1 -0.87,-0.27a1.73,1.73 0 0 1 -0.39,-2.84l14,-12.67l6.87,-8.95l0.09,0a20.55,20.55 0 0 1 13.9,-0.26l3.54,1.21a2.15,2.15 0 0 0 1.76,-0.25l24.93,-14.53a0.74,0.74 0 0 1 0.42,-0.11l-0.02,-2.72z" class="cls-5"/>
  </g>
  <path id="svg_8" fill="#ffd1c2" d="m79.47,75.69a7,7 0 0 0 -2,-5l-7.28,-7.29a20.15,20.15 0 0 0 -3.2,0.93l-0.09,0l-6.87,9l-4.13,3.73l6.63,0.29l5.79,4.1a7.06,7.06 0 0 0 11.15,-5.76z" class="cls-5"/>
  <path id="svg_9" fill="#ffe0d1" d="m75.28,72.85l-8.38,-8.49a19.44,19.44 0 0 0 -17,-5.52l-10,1.63l-26.77,-12.56a0.46,0.46 0 0 0 -0.66,0.42l0,27.07a0.47,0.47 0 0 0 0.26,0.42l17.93,8.77l0.86,1.07a26.63,26.63 0 0 0 7.39,6.34l1.18,-6.23l14.83,-11.77l8.63,0.37l6.52,4.63a4,4 0 0 0 5.21,-6.14l0,-0.01z" class="cls-3"/>
  <path id="svg_10" fill="#ffd1c2" d="m36.05,82.78a6.16,6.16 0 0 0 -2.05,-1.67l-15.75,-7.69a2.21,2.21 0 0 1 -1.25,-2l0,-21.7l-3.87,-1.81a0.46,0.46 0 0 0 -0.66,0.42l0,27.07a0.47,0.47 0 0 0 0.26,0.42l17.93,8.77l0.86,1.07a26.63,26.63 0 0 0 7.39,6.34l1,-5.32a26.49,26.49 0 0 1 -3.87,-3.91l0.01,0.01z" class="cls-5"/>
  <path id="svg_11" fill="#b3e5ee" d="m67.26,51.76l-4.18,1.53a1.93,1.93 0 0 1 -1.34,0l-4.18,-1.53a21.94,21.94 0 0 1 -14.39,-20.6l0,-13.16a2.27,2.27 0 0 1 1.83,-2.19l17.51,-3.41l17.31,3.41a2.27,2.27 0 0 1 1.83,2.19l0,13.16a21.94,21.94 0 0 1 -14.39,20.6z" class="cls-6"/>
  <path id="svg_12" fill="#86d7e5" d="m65.5,51.5c-10.35,-3.43 -17.22,-12.34 -17.22,-22.3l0,-14l-3.28,0.61a2.27,2.27 0 0 0 -1.83,2.19l0,13.16a21.94,21.94 0 0 0 14.39,20.6l4.18,1.53a1.93,1.93 0 0 0 1.34,0l3.72,-1.36l-1.3,-0.43z" class="cls-7"/>
  <path id="svg_13" fill="#f9f7f7" d="m59.64,46.08a15.93,15.93 0 0 1 -10.42,-14.92l0,-8.91a1.33,1.33 0 0 1 1.07,-1.31l12.21,-2.38l12,2.37a1.33,1.33 0 0 1 1.07,1.31l0,8.92a15.88,15.88 0 0 1 -10.39,14.92l-2.77,1l-2.77,-1z" class="cls-8"/>
  <path id="svg_14" fill="#e17983" d="m59.94,38.87a1.53,1.53 0 0 1 -1,-0.41l-2.44,-2.3a1.51,1.51 0 0 1 2.03,-2.16l1.27,1.19l6.87,-8.35a1.51,1.51 0 1 1 2.33,1.88l-7.9,9.6a1.52,1.52 0 0 1 -1.07,0.55l-0.09,0z" class="cls-9"/>
  <path id="svg_15" fill="#ffd1c2" d="m91.23,91.59a15.92,15.92 0 0 0 2.77,-1.54a6.91,6.91 0 0 0 -1.3,-2.25l-2.64,-3a6.84,6.84 0 0 0 -9.64,-0.68l-0.21,0.19a6.74,6.74 0 0 0 -2.11,3.37a6.84,6.84 0 0 0 -3.64,1.63l-0.22,0.18a6.83,6.83 0 0 0 -2.11,3.38a6.76,6.76 0 0 0 -3.63,1.62l-0.22,0.19a6.7,6.7 0 0 0 -2.11,3.32a6.9,6.9 0 0 0 -3.64,1.62l-0.22,0.19a6.83,6.83 0 0 0 -2.31,4.69a6.73,6.73 0 0 0 1.66,5l2.21,2.5a3.66,3.66 0 0 0 0.68,-0.51l1.59,-1.41l10.9,-8a2,2 0 0 1 3.24,-2.39l3,-2.23a2.38,2.38 0 0 1 -0.16,-0.85a2.43,2.43 0 0 1 3.92,-1.92l4.19,-3.1z" class="cls-5"/>
  <path id="svg_16" fill="#ffe0d1" d="m84.45,95l-2.64,-3a3.8,3.8 0 0 1 0.38,-5.37l0.22,-0.19a3.8,3.8 0 0 1 5.37,0.38l2.64,3a3.8,3.8 0 0 1 -0.42,5.33l-0.22,0.19a3.8,3.8 0 0 1 -5.33,-0.34z" class="cls-3"/>
  <path id="svg_17" fill="#ffd1c2" d="m86.1,93.72l-2.64,-3a3.81,3.81 0 0 1 0,-5a3.94,3.94 0 0 0 -1,0.64l-0.22,0.19a3.8,3.8 0 0 0 -0.38,5.37l2.64,3a3.8,3.8 0 0 0 5.37,0.38l0.22,-0.19a3.09,3.09 0 0 0 0.4,-0.41a3.81,3.81 0 0 1 -4.34,-1l-0.05,0.02z" class="cls-5"/>
  <path id="svg_18" fill="#ffe0d1" d="m78.49,100.14l-2.64,-3a3.81,3.81 0 0 1 0.37,-5.37l0.22,-0.19a3.81,3.81 0 0 1 5.37,0.37l2.64,3a3.81,3.81 0 0 1 -0.37,5.37l-0.22,0.19a3.8,3.8 0 0 1 -5.37,-0.38l0,0.01z" class="cls-3"/>
  <path id="svg_19" fill="#ffd1c2" d="m80.18,98.67l-2.64,-3a3.81,3.81 0 0 1 -0.27,-4.67a3.42,3.42 0 0 0 -0.83,0.55l-0.22,0.19a3.81,3.81 0 0 0 -0.37,5.37l2.64,3a3.8,3.8 0 0 0 5.37,0.38l0.22,-0.19a3.79,3.79 0 0 0 0.65,-0.74a3.8,3.8 0 0 1 -4.55,-0.92l0,0.03z" class="cls-5"/>
  <path id="svg_20" fill="#ffe0d1" d="m72.52,105.33l-2.64,-3a3.8,3.8 0 0 1 0.38,-5.37l0.22,-0.19a3.8,3.8 0 0 1 5.37,0.38l2.64,3a3.81,3.81 0 0 1 -0.38,5.38l-0.22,0.18a3.8,3.8 0 0 1 -5.37,-0.37l0,-0.01z" class="cls-3"/>
  <path id="svg_21" fill="#ffd1c2" d="m74.14,103.92l-2.64,-3a3.79,3.79 0 0 1 -0.25,-4.67a3.59,3.59 0 0 0 -0.77,0.52l-0.22,0.19a3.8,3.8 0 0 0 -0.38,5.37l2.64,3a3.8,3.8 0 0 0 5.37,0.37l0.22,-0.18a4.16,4.16 0 0 0 0.63,-0.7a3.81,3.81 0 0 1 -4.6,-0.9z" class="cls-5"/>
  <path id="svg_22" fill="#ffe0d1" d="m66.56,110.51l-2.64,-3a3.81,3.81 0 0 1 0.37,-5.37l0.22,-0.19a3.8,3.8 0 0 1 5.37,0.38l2.64,3a3.81,3.81 0 0 1 -0.37,5.37l-0.22,0.19a3.8,3.8 0 0 1 -5.37,-0.38z" class="cls-3"/>
  <path id="svg_23" fill="#ffd1c2" d="m69.49,110.3l-4,-4.65a3.83,3.83 0 0 1 -0.63,-4l-0.31,0.24l-0.22,0.19a3.81,3.81 0 0 0 -0.37,5.37l2.64,3a3.81,3.81 0 0 0 4.6,0.9a3.84,3.84 0 0 1 -1.67,-1.11l-0.04,0.06z" class="cls-5"/>
 </g>
</svg>