<svg width="125" height="125" xmlns="http://www.w3.org/2000/svg">

 <title>Ativo 209_1elogios</title>
 <g>
  <title>Layer 1</title>
  <rect id="svg_1" fill="#253150" rx="7.12" height="125" width="125" class="cls-1"/>
  <path id="svg_2" fill="#e79098" d="m106.8,59.86a14,14 0 0 1 -8.8,13.04a1.86,1.86 0 0 0 -1.16,1.72a1.84,1.84 0 0 0 0.06,0.47a13.86,13.86 0 0 1 -7.77,16.12a2.12,2.12 0 0 0 -0.91,0.79a2.21,2.21 0 0 0 -0.33,1.16a13.38,13.38 0 0 1 -24.29,7.75a1.3,1.3 0 0 0 -2.1,0a13.38,13.38 0 0 1 -24.29,-7.75a2.13,2.13 0 0 0 -1.24,-2a13.8,13.8 0 0 1 -7.77,-16.12a1.87,1.87 0 0 0 -1.1,-2.19a14,14 0 0 1 5.18,-27.07l0,0a0.28,0.28 0 0 0 0.25,-0.4a17,17 0 0 1 -1.63,-7.38a17.09,17.09 0 0 1 30.49,-10.4a1.41,1.41 0 0 0 2.22,0a17.1,17.1 0 0 1 28.9,17.83a0.28,0.28 0 0 0 0.25,0.4l0,0a14,14 0 0 1 14,14l0.04,0.03z" class="cls-2"/>
  <path id="svg_3" fill="#e17983" d="m55.4,99.16a12,12 0 0 1 -4.16,-9a2,2 0 0 0 -1.31,-1.84c-5.3,-2.1 -8.7,-6.82 -8.7,-12a11.71,11.71 0 0 1 0.47,-3.28a1.72,1.72 0 0 0 -1.17,-2.07c-5.49,-1.95 -9.37,-6.73 -9.37,-12.32c0,-7.33 6.66,-13.27 14.87,-13.27l0,0a0.26,0.26 0 0 0 0.27,-0.37a14.66,14.66 0 0 1 -1.69,-7c0.1,-6.76 4.92,-12.54 11.6,-14.85a16.93,16.93 0 0 0 -7.91,-2.11a17.11,17.11 0 0 0 -15.81,24.38a0.28,0.28 0 0 1 -0.25,0.4l0,0a14,14 0 0 0 -5.19,27.07a1.87,1.87 0 0 1 1.1,2.19a13.8,13.8 0 0 0 7.77,16.12a2.13,2.13 0 0 1 1.24,2a13.38,13.38 0 0 0 23.36,8.92a14.38,14.38 0 0 1 -5.12,-2.92l0,-0.05z" class="cls-3"/>
  <path id="svg_4" fill="#e17983" d="m69.35,44.63a5.38,5.38 0 0 1 -5.35,-5.38l0,-12.08l-0.36,0.43a1.41,1.41 0 0 1 -2.22,0l-0.42,-0.43l0,12.08a5.38,5.38 0 0 1 -5.38,5.38a1.47,1.47 0 0 0 0,2.94a8.3,8.3 0 0 0 6.88,-3.57a8.3,8.3 0 0 0 6.85,3.61a1.47,1.47 0 0 0 0,-2.94l0,-0.04z" class="cls-3"/>
  <path id="svg_5" fill="#e17983" d="m62.5,73.5a1.46,1.46 0 0 1 -1.5,-1.5l0,-2.1a5.39,5.39 0 0 0 -5.38,-5.38a1.47,1.47 0 0 1 0,-2.93a8.32,8.32 0 0 1 8.38,8.31l0,2.1a1.46,1.46 0 0 1 -1.5,1.5z" class="cls-3"/>
  <path id="svg_6" fill="#e17983" d="m62.5,73.5a1.46,1.46 0 0 1 -1.5,-1.5l0,-2.1a8.32,8.32 0 0 1 8.32,-8.31a1.47,1.47 0 0 1 0,2.93a5.39,5.39 0 0 0 -5.32,5.38l0,2.1a1.46,1.46 0 0 1 -1.5,1.5z" class="cls-3"/>
  <path id="svg_7" fill="#e17983" d="m67.5,91.2a3.53,3.53 0 0 1 -3.5,-3.53l0,-1.56a1.47,1.47 0 0 0 -2.94,0l0,1.56a3.53,3.53 0 0 1 -3.56,3.53a1.47,1.47 0 0 0 0,2.94a6.48,6.48 0 0 0 5,-2.37a6.48,6.48 0 0 0 5,2.37a1.47,1.47 0 0 0 0,-2.94z" class="cls-3"/>
  <path id="svg_8" fill="#e17983" d="m81.75,61.9a1.46,1.46 0 0 1 -1.47,-1.46l0,-1.13a12.09,12.09 0 0 1 4,-9a1.47,1.47 0 1 1 2,2.19a9.15,9.15 0 0 0 -3,6.81l0,1.13a1.46,1.46 0 0 1 -1.47,1.46l-0.06,0z" class="cls-3"/>
  <path id="svg_9" fill="#e17983" d="m43.25,61.9a1.46,1.46 0 0 1 -1.47,-1.46l0,-1.13a9.15,9.15 0 0 0 -3,-6.81a1.47,1.47 0 1 1 1.95,-2.19a12.09,12.09 0 0 1 4,9l0,1.13a1.46,1.46 0 0 1 -1.47,1.46l-0.01,0z" class="cls-3"/>
  <path id="svg_10" fill="#da606c" d="m42.49,84.11a1.46,1.46 0 0 1 -1.49,-1.47l0,-0.32a11.87,11.87 0 0 1 5.59,-10.11l0.19,-0.12a1.47,1.47 0 0 1 1.56,2.49l-0.19,0.12a8.94,8.94 0 0 0 -4.15,7.62l0,0.32a1.47,1.47 0 0 1 -1.47,1.47l-0.04,0z" class="cls-4"/>
  <path id="svg_11" fill="#e17983" d="m82.51,84.11a1.47,1.47 0 0 1 -1.51,-1.47l0,-0.32a8.94,8.94 0 0 0 -4.22,-7.62l-0.19,-0.12a1.47,1.47 0 0 1 1.56,-2.49l0.19,0.12a11.87,11.87 0 0 1 5.66,10.11l0,0.32a1.46,1.46 0 0 1 -1.46,1.47l-0.03,0z" class="cls-3"/>
  <path id="svg_12" fill="#da606c" d="m43.59,41.5a1.46,1.46 0 0 1 -1.47,-1.5l0,-0.8a6.75,6.75 0 0 1 4.52,-6.37a1.47,1.47 0 1 1 1,2.77a3.81,3.81 0 0 0 -2.56,3.6l0,0.8a1.46,1.46 0 0 1 -1.46,1.46l-0.03,0.04z" class="cls-4"/>
  <path id="svg_13" fill="#e17983" d="m81.41,41.5a1.46,1.46 0 0 1 -1.41,-1.5l0,-0.8a3.81,3.81 0 0 0 -2.56,-3.6a1.47,1.47 0 0 1 1,-2.77a6.75,6.75 0 0 1 4.52,6.37l0,0.8a1.46,1.46 0 0 1 -1.47,1.46l-0.08,0.04z" class="cls-3"/>
  <path id="svg_14" fill="#fbe88c" d="m101.9,22.1l2.91,-7.55a1.05,1.05 0 0 1 1.32,-0.62a8.07,8.07 0 0 1 5,4.49a1.07,1.07 0 0 1 -0.49,1.38l-7.23,3.61a1.05,1.05 0 0 1 -1.46,-1.31l-0.05,0z" class="cls-5"/>
  <path id="svg_15" fill="#fbe88c" d="m23.1,22.1l-2.91,-7.55a1.05,1.05 0 0 0 -1.32,-0.62a8.07,8.07 0 0 0 -5,4.49a1.07,1.07 0 0 0 0.49,1.38l7.23,3.61a1.05,1.05 0 0 0 1.51,-1.31z" class="cls-5"/>
  <path id="svg_16" fill="#fbe88c" d="m101.9,102.71l2.91,7.55a1.06,1.06 0 0 0 1.32,0.62a8.09,8.09 0 0 0 5,-4.49a1.07,1.07 0 0 0 -0.49,-1.38l-7.23,-3.62a1.06,1.06 0 0 0 -1.46,1.32l-0.05,0z" class="cls-5"/>
  <path id="svg_17" fill="#fbe88c" d="m23.1,102.71l-2.91,7.55a1.06,1.06 0 0 1 -1.32,0.62a8.09,8.09 0 0 1 -5,-4.49a1.07,1.07 0 0 1 0.49,-1.38l7.23,-3.62a1.06,1.06 0 0 1 1.46,1.32l0.05,0z" class="cls-5"/>
  <path id="svg_18" fill="#fbe88c" d="m62.5,19a1.46,1.46 0 0 1 -1.5,-1.45l0,-3.68a1.47,1.47 0 0 1 2.94,0l0,3.68a1.46,1.46 0 0 1 -1.44,1.45z" class="cls-5"/>
  <path id="svg_19" fill="#fbe88c" d="m62.5,112.6a1.47,1.47 0 0 1 -1.5,-1.47l0,-3.68a1.47,1.47 0 0 1 2.94,0l0,3.68a1.47,1.47 0 0 1 -1.47,1.47l0.03,0z" class="cls-5"/>
  <path id="svg_20" fill="#fbe88c" d="m15.16,92.21a1.47,1.47 0 0 1 -0.84,-2.67l4.18,-2.89a1.47,1.47 0 1 1 1.67,2.41l-4.17,2.94a1.43,1.43 0 0 1 -0.83,0.26l-0.01,-0.05z" class="cls-5"/>
  <path id="svg_21" fill="#fbe88c" d="m19.33,38.61a1.41,1.41 0 0 1 -0.83,-0.26l-4.18,-2.89a1.47,1.47 0 0 1 1.68,-2.41l4.18,2.89a1.47,1.47 0 0 1 -0.84,2.67l-0.01,0z" class="cls-5"/>
  <path id="svg_22" fill="#fbe88c" d="m109.84,92.21a1.43,1.43 0 0 1 -0.84,-0.21l-4.18,-2.89a1.47,1.47 0 1 1 1.67,-2.41l4.18,2.89a1.47,1.47 0 0 1 -0.84,2.67l0.01,-0.05z" class="cls-5"/>
  <path id="svg_23" fill="#fbe88c" d="m105.67,38.61a1.47,1.47 0 0 1 -0.84,-2.67l4.17,-2.89a1.47,1.47 0 0 1 1.67,2.41l-4.18,2.89a1.41,1.41 0 0 1 -0.83,0.26l0.01,0z" class="cls-5"/>
 </g>
</svg>