<svg width="125" height="125" xmlns="http://www.w3.org/2000/svg">
 <defs>
  <clipPath id="clip-path">
   <rect id="svg_1" fill="none" height="100.19" width="98.63" y="12.4" x="13.19" class="cls-1"/>
  </clipPath>
 </defs>
 <title>Ativo 211elogios</title>
 <g>
  <title>Layer 1</title>
  <path id="svg_2" d="m0,7.89c0,-4.28726 3.60274,-7.89 7.89,-7.89l109.22,0c4.28726,0 7.89,3.60274 7.89,7.89l0,109.22c0,4.28726 -3.60274,7.89 -7.89,7.89l-109.22,0c-4.28726,0 -7.89,-3.60274 -7.89,-7.89l0,-109.22z" opacity="undefined" fill="#253151"/>
  <g id="svg_3" clip-path="url(#clip-path)" class="cls-3">
   <path id="svg_4" fill="#ffe0d1" d="m79.35,13.14l-12.47,15.67l-6.59,4.08a28.42,28.42 0 0 0 -11.35,13.48l-2.06,5.07l-2.46,16l10.58,10.05l0.89,8.93a5.11,5.11 0 0 1 -0.43,2.58l-3.17,7a3.5,3.5 0 0 0 6,3.51l5.8,-7.93a2.6,2.6 0 0 0 0.28,-0.45l0,0l-2.37,5.1a3.54,3.54 0 0 0 6.14,3.5l3.4,-5.19a2.27,2.27 0 0 1 0.19,-0.34l2.5,-3.89a3.19,3.19 0 0 1 -0.3,0.58l-2.43,3.65a3.22,3.22 0 0 0 5.5,3.29l4.12,-5.72l-0.83,1.22a3.33,3.33 0 0 0 5.35,4l2.51,-3.13a5.34,5.34 0 0 0 1.11,-2.69l0.76,-6.6l3.52,-28.91l0.15,-6l0,-8.53a1.54,1.54 0 0 1 0.34,-1l17.39,-21.57a1.48,1.48 0 0 0 -1,-2.38l-29.33,-4.1a2,2 0 0 0 -1.79,0.72l0.05,0z" class="cls-4"/>
   <path id="svg_5" fill="#ffd1c2" d="m81.14,12.42a2,2 0 0 0 -1.79,0.72l-12.47,15.67l-6.59,4.08a28.42,28.42 0 0 0 -11.35,13.48l-1,2.55l7.06,0l0.32,-0.78a29.38,29.38 0 0 1 11.68,-13.97l6.78,-4.23l12.82,-16.24a2,2 0 0 1 0.5,-0.45l-5.96,-0.83z" class="cls-5"/>
  </g>
  <path id="svg_6" fill="#ffd1c2" d="m66.11,77.8l-1.42,12.33a3,3 0 0 1 -0.3,1l0,0l-2.39,5.1a3.53,3.53 0 0 0 3.18,5.09a3.4,3.4 0 0 0 1,-0.13a3.54,3.54 0 0 1 -1,-4.3l2.47,-5.06l0,0a3,3 0 0 0 0.31,-1l1.04,-9.83a2.89,2.89 0 0 0 -2.88,-3.22l-0.01,0.02z" class="cls-5"/>
  <path id="svg_7" fill="#ffd1c2" d="m75.62,78.17l-1.23,11.3a3.4,3.4 0 0 1 -0.51,1.43l-2.39,3.64a3.22,3.22 0 0 0 1.16,4.12a3.12,3.12 0 0 0 1.85,0.5l0,0a3.22,3.22 0 0 1 -0.45,-3.5l2.39,-3.66a3.27,3.27 0 0 0 0.3,-0.59a4,4 0 0 0 0.21,-0.84l1.05,-9.74a2.4,2.4 0 0 0 -2.39,-2.66l0.01,0z" class="cls-5"/>
  <path id="svg_8" fill="#ffd1c2" d="m83,78.17l-0.59,5.6l-0.9,7.48a1.79,1.79 0 0 1 -0.34,0.86l-0.83,1.22a3.33,3.33 0 0 0 2.8,5.2a3.31,3.31 0 0 1 -0.31,-4.13l0.83,-1.22a1.94,1.94 0 0 0 0.34,-0.87l0.9,-7.47l0.43,-4.09a2.34,2.34 0 0 0 -2.33,-2.58z" class="cls-5"/>
  <g id="svg_9" clip-path="url(#clip-path)" class="cls-3">
   <path id="svg_10" fill="#ffd1c2" d="m73,54.3a8.55,8.55 0 0 0 0.28,-2.3a8.66,8.66 0 0 0 -8.19,-8.64l-8.76,-0.47l-0.65,0a12.31,12.31 0 0 0 -5.82,1.49c-0.33,0.67 -0.64,1.36 -0.92,2.06l-2.06,5.07l4,-3a8.07,8.07 0 0 1 5.24,-1.58l8.76,0.47a4.6,4.6 0 0 1 4.34,4.6a4.53,4.53 0 0 1 -0.17,1.25a4.6,4.6 0 0 1 -3.94,3.33l-7.71,0.82l-2.94,10.82a5.75,5.75 0 0 0 -0.18,2.1l1.6,16.1a5.11,5.11 0 0 1 -0.42,2.58l-3.17,7a3.5,3.5 0 0 0 5.11,4.37a7.17,7.17 0 0 1 0,-5.86l1.75,-3.85a9.21,9.21 0 0 0 0.77,-4.66l-1.6,-16.09a1.77,1.77 0 0 1 0,-0.65l2.22,-8.19l5,-0.53a8.6,8.6 0 0 0 7.46,-6.24z" class="cls-5"/>
   <path id="svg_11" fill="#ffe6c6" d="m69.22,52a4.53,4.53 0 0 1 -0.17,1.25a4.6,4.6 0 0 1 -3.94,3.33l-7.71,0.82l-2.94,10.82a5.75,5.75 0 0 0 -0.18,2.1l1.6,16.1a5.11,5.11 0 0 1 -0.42,2.58l-3.17,7a3.48,3.48 0 0 0 0,2.87l-3.51,1.21a1.31,1.31 0 0 0 -0.59,0.42l-8.79,11a3,3 0 0 1 -3.54,0.83l-21.7,-10.09a1.55,1.55 0 0 1 -0.56,-2.38l18,-22.46l3,-11.56a19.31,19.31 0 0 1 7.11,-10.55l5.16,-3.84l4,-3a8.07,8.07 0 0 1 5.24,-1.58l8.76,0.47a4.6,4.6 0 0 1 4.35,4.66z" class="cls-6"/>
   <path id="svg_12" fill="#f8d3aa" d="m18.24,103.67l18,-22.46l3,-11.57a19.29,19.29 0 0 1 7.12,-10.54l5.16,-3.84l4,-3a8.07,8.07 0 0 1 5.24,-1.58l8.4,0.45a4.6,4.6 0 0 0 -4.28,-3.8l-8.76,-0.47a8.07,8.07 0 0 0 -5.24,1.58l-4,3l-5.16,3.84a19.31,19.31 0 0 0 -7.11,10.55l-3,11.56l-18,22.46a1.55,1.55 0 0 0 0.56,2.38l3.83,1.77a1.13,1.13 0 0 1 0.22,-0.36l0.02,0.03z" class="cls-7"/>
  </g>
  <path id="svg_13" fill="#ffd1c2" d="m90,84.87l3.54,-28.87l0.15,-6l0,-3.05l-3,-0.13l-0.33,0a7.31,7.31 0 0 0 -7.31,7l0,0.42a7.21,7.21 0 0 0 0.73,3.53a7.17,7.17 0 0 0 -2.19,4.85l0,0.41a7.27,7.27 0 0 0 0.7,3.42a7.24,7.24 0 0 0 -2.13,4.8l0,0.41a7.21,7.21 0 0 0 0.79,3.61a7.32,7.32 0 0 0 4.76,12.53l3.21,0.14l0.33,0l0.43,0l0.32,-3.07z" class="cls-5"/>
  <path id="svg_14" fill="#ffe6c6" d="m93.49,59l-3.34,-0.15a4.28,4.28 0 0 1 -4.08,-4.47l0,-0.42a4.27,4.27 0 0 1 4.47,-4.08l3.36,0.12a4.27,4.27 0 0 1 4.1,4.5l0,0.42a4.27,4.27 0 0 1 -4.51,4.08z" class="cls-6"/>
  <path id="svg_15" fill="#ffe6c6" d="m92.15,67.67l-3.59,-0.16a4.16,4.16 0 0 1 -4,-4.33l0,-0.41a4.16,4.16 0 0 1 4.34,-4l3.59,0.16a4.15,4.15 0 0 1 4,4.33l0,0.41a4.16,4.16 0 0 1 -4.34,4z" class="cls-6"/>
  <path id="svg_16" fill="#ffe6c6" d="m90.84,76.53l-4,-0.18a4.14,4.14 0 0 1 -4,-4.33l0,-0.8a4.16,4.16 0 0 1 4.34,-4l4,0.17a4.16,4.16 0 0 1 4,4.34l0,0.8a4.16,4.16 0 0 1 -4.34,4z" class="cls-6"/>
  <path id="svg_17" fill="#ffe6c6" d="m89.23,84.63l-3.23,-0.15a4.28,4.28 0 0 1 0.38,-8.56l3.21,0.14a4.29,4.29 0 1 1 -0.38,8.57l0.02,0z" class="cls-6"/>
  <path id="svg_18" fill="#f8d3aa" d="m94.32,56.76l-3.32,-0.15a4.28,4.28 0 0 1 -4.08,-4.47l0,-0.42s0,-0.08 0,-0.11a4.27,4.27 0 0 0 -0.83,2.39l0,0.42a4.28,4.28 0 0 0 4.08,4.47l3.34,0.15a4.29,4.29 0 0 0 4.49,-4.04a4.28,4.28 0 0 1 -3.64,1.72l-0.04,0.04z" class="cls-7"/>
  <path id="svg_19" fill="#f8d3aa" d="m93,65.42l-3.59,-0.16a4.16,4.16 0 0 1 -4,-4.33l0,-0.41s0,-0.05 0,-0.07a4.14,4.14 0 0 0 -0.84,2.32l0,0.4a4.15,4.15 0 0 0 4,4.34l3.59,0.16a4.14,4.14 0 0 0 4.33,-3.89a4.13,4.13 0 0 1 -3.49,1.64z" class="cls-7"/>
  <path id="svg_20" fill="#f8d3aa" d="m91.67,74.28l-4,-0.18a4.14,4.14 0 0 1 -4,-4.33l0,-0.8s0,0 0,-0.07a4.17,4.17 0 0 0 -0.84,2.32l0,0.8a4.14,4.14 0 0 0 4,4.33l4,0.18a4.15,4.15 0 0 0 4.33,-3.89a4.16,4.16 0 0 1 -3.5,1.64l0.01,0z" class="cls-7"/>
  <path id="svg_21" fill="#f8d3aa" d="m90.06,82.38l-3.21,-0.15a4.27,4.27 0 0 1 -4.08,-4.57l0,0a4.23,4.23 0 0 0 -0.83,2.26a4.28,4.28 0 0 0 4.06,4.56l3.21,0.15a4.3,4.3 0 0 0 4.47,-4a4.31,4.31 0 0 1 -3.64,1.74l0.02,0.01z" class="cls-7"/>
 </g>
</svg>